<svg xmlns="http://www.w3.org/2000/svg" xmlns:xlink="http://www.w3.org/1999/xlink" width="500" zoomAndPan="magnify" viewBox="0 0 375 374.999991" height="500" preserveAspectRatio="xMidYMid meet" version="1.0"><defs><clipPath id="bed6e794fe"><path d="M 0 23.183594 L 375 23.183594 L 375 351.683594 L 0 351.683594 Z M 0 23.183594 " clip-rule="nonzero"/></clipPath></defs><g clip-path="url(#bed6e794fe)"><path fill="#ffffff" d="M 103.179688 346.441406 L 119.035156 346.441406 L 119.035156 351.683594 L 103.179688 351.683594 Z M 79.855469 41.519531 L 84.441406 44.140625 L 92.4375 30.386719 L 87.851562 27.765625 Z M 79.464844 332.691406 L 87.457031 346.441406 L 92.042969 343.824219 L 83.917969 330.070312 Z M 104.097656 28.421875 L 119.953125 28.421875 L 119.953125 23.183594 L 104.097656 23.183594 Z M 64.003906 69.023438 L 68.589844 71.644531 L 76.582031 57.890625 L 71.996094 55.273438 Z M 135.808594 28.421875 L 151.664062 28.421875 L 151.664062 23.183594 L 135.808594 23.183594 Z M 166.730469 351.683594 L 182.585938 351.683594 L 182.585938 346.441406 L 166.730469 346.441406 Z M 135.023438 351.683594 L 150.875 351.683594 L 150.875 346.441406 L 135.023438 346.441406 Z M 15.914062 222.796875 L 23.90625 236.550781 L 28.492188 233.929688 L 20.5 220.175781 Z M 0.453125 178.917969 L 5.039062 181.539062 L 13.03125 167.785156 L 8.445312 165.164062 Z M 167.515625 28.421875 L 183.371094 28.421875 L 183.371094 23.183594 L 167.519531 23.183594 L 167.519531 28.421875 Z M 63.609375 305.183594 L 71.601562 318.9375 L 76.1875 316.316406 L 68.195312 302.5625 Z M 16.304688 151.410156 L 20.890625 154.03125 L 28.886719 140.277344 L 24.300781 137.660156 Z M 0.0585938 195.289062 L 8.050781 209.042969 L 12.636719 206.425781 L 4.644531 192.671875 Z M 48.148438 96.398438 L 52.734375 99.019531 L 60.726562 85.265625 L 56.140625 82.648438 Z M 47.625 277.675781 L 55.617188 291.429688 L 60.203125 288.8125 L 52.210938 275.058594 Z M 31.769531 250.171875 L 39.761719 263.925781 L 44.347656 261.304688 L 36.355469 247.550781 Z M 32.160156 123.90625 L 36.746094 126.527344 L 44.742188 112.773438 L 40.152344 110.152344 Z M 325.148438 101.117188 L 320.5625 103.734375 L 328.554688 117.488281 L 333.140625 114.867188 Z M 331.570312 252.265625 L 336.15625 254.886719 L 344.148438 241.132812 L 339.5625 238.515625 Z M 309.292969 73.609375 L 304.707031 76.230469 L 312.703125 89.980469 L 317.289062 87.363281 Z M 315.714844 279.773438 L 320.300781 282.394531 L 328.292969 268.640625 L 323.707031 266.019531 Z M 341.136719 128.621094 L 336.550781 131.242188 L 344.542969 144.992188 L 349.128906 142.375 Z M 372.84375 183.632812 L 368.257812 186.253906 L 368.914062 187.433594 L 363.148438 197.386719 L 367.734375 200.007812 L 374.941406 187.433594 Z M 347.425781 224.890625 L 352.011719 227.511719 L 360.003906 213.757812 L 355.417969 211.140625 Z M 356.988281 156.128906 L 352.402344 158.746094 L 360.398438 172.5 L 364.984375 169.878906 Z M 230.152344 351.683594 L 246.007812 351.683594 L 246.007812 346.441406 L 230.152344 346.441406 Z M 231.066406 28.421875 L 246.921875 28.421875 L 246.921875 23.183594 L 231.066406 23.183594 Z M 198.441406 351.683594 L 214.296875 351.683594 L 214.296875 346.441406 L 198.441406 346.441406 Z M 299.730469 307.277344 L 304.316406 309.898438 L 312.308594 296.144531 L 307.722656 293.527344 Z M 261.992188 351.683594 L 277.847656 351.683594 L 277.847656 346.441406 L 261.992188 346.441406 Z M 199.226562 28.421875 L 215.082031 28.421875 L 215.082031 23.183594 L 199.226562 23.183594 Z M 293.441406 46.234375 L 288.851562 48.855469 L 296.847656 62.605469 L 301.433594 59.988281 Z M 280.207031 23.183594 L 262.777344 23.183594 L 262.777344 28.421875 L 277.191406 28.421875 L 280.992188 35.101562 L 285.578125 32.480469 Z M 283.875 334.785156 L 288.460938 337.40625 L 296.453125 323.652344 L 291.867188 321.03125 Z M 283.875 334.785156 " fill-opacity="1" fill-rule="nonzero"/></g></svg>